G04*
G04 #@! TF.GenerationSoftware,Altium Limited,Altium Designer,26.5.0 (11)*
G04*
G04 Layer_Physical_Order=1*
G04 Layer_Color=255*
G04 Board_Origin=12303150|11811024*
%FSLAX44Y44*%
%MOMM*%
G71*
G04*
G04 #@! TF.SameCoordinates,0394CE76-5B9E-4089-8129-3FAD6AAE9C26*
G04*
G04*
G04 #@! TF.FilePolarity,Positive*
G04*
G01*
G75*
%ADD15R,1.9000X1.2000*%
%ADD16R,3.2500X2.1500*%
%ADD17R,0.9500X2.1500*%
%ADD18R,0.9000X1.0000*%
G04:AMPARAMS|DCode=19|XSize=0.8mm|YSize=0.8mm|CornerRadius=0.1mm|HoleSize=0mm|Usage=FLASHONLY|Rotation=180.000|XOffset=0mm|YOffset=0mm|HoleType=Round|Shape=RoundedRectangle|*
%AMROUNDEDRECTD19*
21,1,0.8000,0.6000,0,0,180.0*
21,1,0.6000,0.8000,0,0,180.0*
1,1,0.2000,-0.3000,0.3000*
1,1,0.2000,0.3000,0.3000*
1,1,0.2000,0.3000,-0.3000*
1,1,0.2000,-0.3000,-0.3000*
%
%ADD19ROUNDEDRECTD19*%
%ADD25C,0.8000*%
%ADD26C,0.3000*%
%ADD27C,2.2000*%
%ADD28C,1.2700*%
D15*
X180000Y161000D02*
D03*
Y130000D02*
D03*
X320000D02*
D03*
Y161000D02*
D03*
D16*
X250000Y179000D02*
D03*
D17*
X273000Y121000D02*
D03*
X250000D02*
D03*
X227000D02*
D03*
D18*
X281000Y63000D02*
D03*
X264000D02*
D03*
D19*
X235500Y63000D02*
D03*
X218500D02*
D03*
D25*
X317000Y179000D02*
X317899Y178101D01*
Y163000D02*
Y178101D01*
Y163000D02*
X319899Y161000D01*
X320000D01*
X422470D01*
X273000Y120849D02*
Y121000D01*
Y120849D02*
X273750Y120099D01*
X290101D01*
X291000Y119200D01*
X250000Y121000D02*
Y179000D01*
X316500Y130000D02*
X320000D01*
X296000Y150500D02*
X316500Y130000D01*
X296000Y150500D02*
Y170000D01*
X287000Y179000D02*
X296000Y170000D01*
X250000Y179000D02*
X287000D01*
X437467Y175996D02*
X440000D01*
X422470Y161000D02*
X437467Y175996D01*
X209375Y121000D02*
X227000D01*
X201500Y128875D02*
X209375Y121000D01*
X181125Y128875D02*
X201500D01*
X180000Y130000D02*
X181125Y128875D01*
X176500Y130000D02*
X180000D01*
X165700Y119200D02*
X176500Y130000D01*
X60000Y119200D02*
X165700D01*
X436212Y125197D02*
X440000D01*
X431408Y130000D02*
X436212Y125197D01*
X320000Y130000D02*
X431408D01*
X201500Y179000D02*
X250000D01*
X183500Y161000D02*
X201500Y179000D01*
X180000Y161000D02*
X183500D01*
X69000D02*
X180000D01*
X60000Y170000D02*
X69000Y161000D01*
D26*
X218500Y63000D02*
Y76500D01*
X249507Y107507D01*
Y120507D02*
X250000Y121000D01*
X249507Y107507D02*
Y120507D01*
X235500Y63000D02*
X264000D01*
X264000Y63000D01*
X297692D02*
X300257Y65565D01*
X281000Y63000D02*
X297692D01*
X300257Y65565D02*
Y79243D01*
X273000Y106500D02*
Y121000D01*
Y106500D02*
X300257Y79243D01*
D27*
X440000Y175996D02*
D03*
Y125197D02*
D03*
X60000Y170000D02*
D03*
Y119200D02*
D03*
D28*
X317000Y179000D02*
D03*
X291000Y119200D02*
D03*
M02*
