G04*
G04 #@! TF.GenerationSoftware,Altium Limited,Altium Designer,26.5.0 (11)*
G04*
G04 Layer_Color=8388736*
G04 Board_Origin=12303150|11811024*
%FSLAX44Y44*%
%MOMM*%
G71*
G04*
G04 #@! TF.SameCoordinates,8F847D3F-FAEE-49C1-B6D2-7AD3CCDA4F46*
G04*
G04*
G04 #@! TF.FilePolarity,Negative*
G04*
G01*
G75*
%ADD16R,5.8000X6.2000*%
%ADD18R,1.6000X3.0000*%
%ADD19R,1.4032X1.4032*%
%ADD20R,1.8032X1.7032*%
%ADD21R,1.5532X1.3532*%
%ADD22R,1.4000X1.5000*%
%ADD23R,1.4032X1.4032*%
%ADD24R,1.5032X1.6032*%
%ADD25C,2.4032*%
%ADD26C,0.2032*%
D16*
X294600Y100000D02*
D03*
D18*
X317450Y170900D02*
D03*
X271750D02*
D03*
D19*
X414600Y132000D02*
D03*
X434600D02*
D03*
X364600Y104300D02*
D03*
X234600Y108600D02*
D03*
D20*
X424600Y164500D02*
D03*
D21*
X364600Y161250D02*
D03*
Y178750D02*
D03*
D22*
X466000Y80500D02*
D03*
X450000D02*
D03*
X226600Y170000D02*
D03*
X406600Y80000D02*
D03*
X242600Y170000D02*
D03*
D23*
X234600Y80000D02*
D03*
X364600Y75700D02*
D03*
D24*
X422600Y80000D02*
D03*
D25*
X498600Y150000D02*
D03*
X130000D02*
D03*
X79200D02*
D03*
X549400D02*
D03*
D26*
X30000Y190000D02*
D03*
X600000D02*
D03*
Y30000D02*
D03*
X30000D02*
D03*
M02*
